<svg width="48" height="48" viewBox="0 0 48 48" fill="none" xmlns="http://www.w3.org/2000/svg">
<circle cx="24" cy="24" r="24" fill="#511124"/>
<path d="M26.3838 40.3864L24.5089 42L22.6265 40.3948L24.5005 38.195L26.3838 40.3864ZM35.1115 20.447C35.1114 15.1692 30.3607 10.8905 24.5005 10.8904C18.6401 10.8904 13.8886 15.1691 13.8885 20.447C13.8885 29.1418 24.5005 38.195 24.5005 38.195C22.6766 40.3358 22.6274 40.3929 22.6256 40.3939L22.6209 40.3892C22.6182 40.3869 22.6145 40.3841 22.6105 40.3807C22.6027 40.374 22.5922 40.3654 22.5795 40.3544C22.5537 40.3321 22.518 40.3007 22.4732 40.2612C22.3837 40.1824 22.2571 40.0694 22.099 39.9253C21.7831 39.6374 21.3393 39.2224 20.8108 38.6994C19.757 37.6564 18.3471 36.166 16.9303 34.3769C14.2047 30.935 11 25.8314 11 20.447C11.0001 13.2938 17.3388 8 24.5005 8L24.8352 8.00376C31.7471 8.16317 37.8046 13.2406 37.9953 20.113L38 20.447C38 25.7951 34.7924 30.9002 32.0725 34.3449C30.6571 36.1376 29.2484 37.6342 28.1958 38.6824C27.6678 39.2082 27.2248 39.6253 26.9095 39.915C26.7517 40.0599 26.6255 40.1735 26.5362 40.2528C26.4917 40.2923 26.4565 40.3235 26.4309 40.3459C26.4181 40.3571 26.4076 40.3664 26.3998 40.3732C26.3959 40.3766 26.3921 40.3794 26.3895 40.3817C26.3884 40.3826 26.3875 40.3837 26.3867 40.3845L26.3848 40.3854C26.3811 40.3823 26.3054 40.2956 24.5005 38.195C24.5005 38.195 35.1115 29.0652 35.1115 20.447ZM26.9179 21.5093C26.9179 20.1735 25.8354 19.0903 24.5005 19.0903C23.1662 19.0903 22.084 20.1729 22.084 21.5093C22.0842 22.8451 23.1659 23.9273 24.5005 23.9274V26.8178C21.5704 26.8177 19.1956 24.4412 19.1954 21.5093C19.1954 18.5772 21.5703 16.1999 24.5005 16.1999C27.4307 16.1999 29.8064 18.5772 29.8064 21.5093C29.8062 24.4412 27.4305 26.8178 24.5005 26.8178V23.9274C25.7521 23.9274 26.7817 22.9758 26.9057 21.7568L26.9179 21.5093Z" fill="white"/>
</svg>
