<svg width="48" height="48" viewBox="0 0 48 48" fill="none" xmlns="http://www.w3.org/2000/svg">
<circle cx="24" cy="24" r="24" fill="#511124"/>
<path d="M30.2857 15.67C30.2857 14.8917 30.2847 14.3891 30.2533 14.0066C30.2231 13.6398 30.172 13.5039 30.1378 13.4371L30.1377 13.437C30.0077 13.1831 29.8001 12.9766 29.5447 12.8471L29.5447 12.8471C29.4776 12.8131 29.3409 12.7623 28.9723 12.7323C28.5877 12.701 28.0825 12.7 27.3 12.7L19.7 12.7C18.9175 12.7 18.4123 12.701 18.0278 12.7323C17.6591 12.7623 17.5224 12.8131 17.4553 12.8471C17.2 12.9766 16.9923 13.1831 16.8622 13.4371C16.828 13.5038 16.7769 13.6398 16.7467 14.0066C16.7153 14.3891 16.7143 14.8917 16.7143 15.67L16.7143 31.33C16.7143 32.1083 16.7153 32.6109 16.7467 32.9935C16.7769 33.3602 16.828 33.4962 16.8622 33.5629L16.8622 33.5629C16.9923 33.817 17.1999 34.0235 17.4552 34.1528L17.4553 34.1529C17.5224 34.1869 17.6591 34.2377 18.0278 34.2677C18.4123 34.299 18.9175 34.3 19.7 34.3H27.3C28.0825 34.3 28.5877 34.299 28.9723 34.2677C29.341 34.2377 29.4776 34.1869 29.5447 34.1529L29.5448 34.1528C29.8001 34.0235 30.0077 33.8169 30.1377 33.563L30.1378 33.5629C30.172 33.4962 30.2231 33.3602 30.2533 32.9935C30.2847 32.6109 30.2857 32.1083 30.2857 31.33L30.2857 15.67ZM23.5136 30.25C24.2631 30.25 24.8707 30.8544 24.8707 31.6C24.8707 32.3456 24.2631 32.95 23.5136 32.95H23.5C22.7505 32.95 22.1429 32.3456 22.1429 31.6C22.1429 30.8544 22.7505 30.25 23.5 30.25H23.5136ZM24.8571 14.05C25.6067 14.05 26.2143 14.6544 26.2143 15.4C26.2143 16.1456 25.6067 16.75 24.8571 16.75H22.1429C21.3933 16.75 20.7857 16.1456 20.7857 15.4C20.7857 14.6544 21.3933 14.05 22.1429 14.05H24.8571ZM33 31.33C33 32.0638 33.0011 32.6954 32.9585 33.2133C32.9147 33.747 32.8179 34.2778 32.5562 34.7886L32.5563 34.7886C32.166 35.5506 31.5431 36.1703 30.777 36.5585L30.7771 36.5585C30.2635 36.8188 29.7298 36.9151 29.1933 36.9587C28.6726 37.0011 28.0377 37 27.3 37H19.7C18.9623 37 18.3274 37.0011 17.8067 36.9587C17.2702 36.9151 16.7366 36.8188 16.2231 36.5586C15.4689 36.1764 14.8535 35.57 14.4622 34.8243L14.4438 34.7887C14.1821 34.2779 14.0853 33.747 14.0415 33.2133C13.9989 32.6954 14 32.0638 14 31.33L14 15.67C14 14.9362 13.9989 14.3047 14.0415 13.7867C14.0853 13.253 14.1821 12.7222 14.4438 12.2114C14.8341 11.4493 15.457 10.8297 16.2231 10.4414C16.7366 10.1811 17.2702 10.0849 17.8068 10.0413C18.3274 9.99894 18.9623 10 19.7 10H27.3C28.0377 10 28.6726 9.99893 29.1933 10.0413C29.7298 10.0849 30.2635 10.1811 30.777 10.4414L30.8128 10.4598C31.5624 10.8491 32.1721 11.4611 32.5563 12.2114C32.8179 12.7222 32.9147 13.253 32.9585 13.7867C33.0011 14.3047 33 14.9362 33 15.67V31.33Z" fill="white"/>
</svg>
