<svg width="48" height="48" viewBox="0 0 48 48" fill="none" xmlns="http://www.w3.org/2000/svg">
<circle cx="24" cy="24" r="24" fill="#511124"/>
<path fill-rule="evenodd" clip-rule="evenodd" d="M38 15.8333V31.1667C38 33.2779 36.2847 35 34.1818 35H13.8182C11.7153 35 10 33.2779 10 31.1667L10 15.8333C10 13.7162 11.7095 12 13.8182 12L34.1818 12C36.2906 12 38 13.7162 38 15.8333ZM12.6811 15.2634C12.8916 14.8455 13.3244 14.5556 13.8182 14.5556L34.1818 14.5556C34.6756 14.5556 35.1084 14.8455 35.3189 15.2634L24 23.218L12.6811 15.2634ZM12.5455 18.2875L22.5403 25.3116C23.4167 25.9276 24.5833 25.9276 25.4597 25.3116L35.4545 18.2875V31.1667C35.4545 31.8665 34.8789 32.4444 34.1818 32.4444H13.8182C13.1211 32.4444 12.5455 31.8665 12.5455 31.1667L12.5455 18.2875Z" fill="white"/>
</svg>
